<?xml version="1.0" encoding="UTF-8" standalone="no"?>
<!-- Created with Inkscape (http://www.inkscape.org/) -->

<svg
   width="17.238598mm"
   height="11.337616mm"
   viewBox="0 0 17.238598 11.337616"
   version="1.1"
   id="svg351"
   inkscape:version="1.2.1 (9c6d41e410, 2022-07-14, custom)"
   sodipodi:docname="02d.svg"
   xmlns:inkscape="http://www.inkscape.org/namespaces/inkscape"
   xmlns:sodipodi="http://sodipodi.sourceforge.net/DTD/sodipodi-0.dtd"
   xmlns="http://www.w3.org/2000/svg"
   xmlns:svg="http://www.w3.org/2000/svg">
  <sodipodi:namedview
     id="namedview353"
     pagecolor="#ffffff"
     bordercolor="#000000"
     borderopacity="0.25"
     inkscape:showpageshadow="2"
     inkscape:pageopacity="0.0"
     inkscape:pagecheckerboard="0"
     inkscape:deskcolor="#d1d1d1"
     inkscape:document-units="mm"
     showgrid="false"
     inkscape:zoom="5.097092"
     inkscape:cx="39.532345"
     inkscape:cy="18.834269"
     inkscape:window-width="1362"
     inkscape:window-height="745"
     inkscape:window-x="0"
     inkscape:window-y="19"
     inkscape:window-maximized="1"
     inkscape:current-layer="layer1" />
  <defs
     id="defs348" />
  <g
     inkscape:label="Layer 1"
     inkscape:groupmode="layer"
     id="layer1"
     transform="translate(-129.11795,-123.9362)">
    <g
       id="g313"
       transform="matrix(0.26458333,0,0,0.26458333,124.35545,116.23237)">
      <path
         style="fill:#f1f1f0"
         d="M 23.762571,70.434612 C 20.759676,68.805258 18,64.287054 18,61 18,55.652994 23.253434,50 28.222506,50 30.752638,50 31,49.674434 31,46.344391 31,37.576128 42.291138,31.204923 48.794322,36.30366 c 0.938632,0.735923 1.712512,0.417746 2.816081,-1.15782 4.604553,-6.573921 17.79689,-8.123509 24.651099,-2.895549 7.841693,5.981151 9.255305,18.786244 2.879443,26.083211 -0.881131,1.008426 -1.471371,3.079388 -1.311644,4.602139 0.192969,1.839664 -0.598334,3.824852 -2.358338,5.916498 C 72.822213,72 72.822213,72 49.661106,71.959962 31.127885,71.927925 25.953027,71.62314 23.762571,70.434612 Z M 74.139216,56.966731 c -1.298431,-1.081702 -3.323431,-1.926146 -4.5,-1.876543 -1.546481,0.0652 -1.252345,0.346667 1.061554,1.015835 1.760423,0.509106 3.474481,1.368521 3.809017,1.909812 0.334536,0.541291 0.919189,0.969194 1.29923,0.950896 0.380041,-0.0183 -0.37137,-0.918298 -1.669801,-2 z M 64.969419,46.774153 c -2.296872,-1.859893 -6.476842,-2.380177 -7.38014,-0.91861 -0.290815,0.470549 0.532201,0.652729 1.828925,0.404844 3.988139,-0.762381 6.561838,1.346714 6.741833,5.524797 C 66.320074,55.5 66.320074,55.5 66.74024,52.024153 c 0.325008,-2.688652 -0.07604,-3.877649 -1.770821,-5.25 z M 53.471513,41.581212 C 52.536845,39.611545 51.303646,38 50.731071,38 c -0.572575,0 -0.349528,0.7875 0.495661,1.75 0.845189,0.9625 1.856021,2.796412 2.246294,4.075361 0.390272,1.278948 0.931953,2.102993 1.203735,1.831211 0.271782,-0.271781 -0.27058,-2.105694 -1.205248,-4.07536 z"
         id="path327" />
      <path
         style="fill:#ed8b71"
         d="M 74.948281,56.838075 C 73.544835,55.7752 71.407335,54.831058 70.198281,54.739983 68.603671,54.619865 68,53.92825 68,52.221454 c 0,-3.493094 -1.567409,-5.799628 -4.871056,-7.168043 -2.209883,-0.915364 -3.473056,-0.939616 -5.047667,-0.09691 -1.841743,0.985671 -2.230635,0.780856 -3.160331,-1.66443 -0.583084,-1.533627 -1.816331,-3.625158 -2.740549,-4.647848 -1.592854,-1.762565 -1.498313,-2.01155 1.81472,-4.779289 9.200064,-7.685819 21.476508,-5.343384 26.754883,5.105026 2.603286,5.153138 2.842415,9.367942 0.807775,14.237521 -2.146014,5.136135 -3.580846,5.924287 -6.609494,3.630593 z"
         id="path319" />
    </g>
  </g>
</svg>
