<?xml version="1.0" encoding="UTF-8" standalone="no"?>
<!-- Created with Inkscape (http://www.inkscape.org/) -->

<svg
   width="17.008928mm"
   height="11.219858mm"
   viewBox="0 0 17.008928 11.219858"
   version="1.1"
   id="svg328"
   inkscape:version="1.2.1 (9c6d41e410, 2022-07-14, custom)"
   sodipodi:docname="02n.svg"
   xmlns:inkscape="http://www.inkscape.org/namespaces/inkscape"
   xmlns:sodipodi="http://sodipodi.sourceforge.net/DTD/sodipodi-0.dtd"
   xmlns="http://www.w3.org/2000/svg"
   xmlns:svg="http://www.w3.org/2000/svg">
  <sodipodi:namedview
     id="namedview330"
     pagecolor="#ffffff"
     bordercolor="#000000"
     borderopacity="0.25"
     inkscape:showpageshadow="2"
     inkscape:pageopacity="0.0"
     inkscape:pagecheckerboard="0"
     inkscape:deskcolor="#d1d1d1"
     inkscape:document-units="mm"
     showgrid="false"
     inkscape:zoom="4.5903193"
     inkscape:cx="68.949453"
     inkscape:cy="28.53832"
     inkscape:window-width="1362"
     inkscape:window-height="745"
     inkscape:window-x="0"
     inkscape:window-y="19"
     inkscape:window-maximized="1"
     inkscape:current-layer="layer1" />
  <defs
     id="defs325" />
  <g
     inkscape:label="Layer 1"
     inkscape:groupmode="layer"
     id="layer1"
     transform="translate(-68.448718,-143.34629)">
    <g
       id="g293"
       transform="matrix(0.26458333,0,0,0.26458333,63.686218,135.52468)">
      <path
         style="fill:#f0f0f0"
         d="M 23.762571,70.434612 C 20.759676,68.805258 18,64.287054 18,61 18,55.652994 23.253434,50 28.222506,50 30.752638,50 31,49.674434 31,46.344391 c 0,-9.624864 13.679405,-16.061205 18.499776,-8.704389 0.873448,1.333051 2.029468,2.150941 2.568933,1.817534 0.539464,-0.333408 0.916405,-0.235247 0.837647,0.218134 -0.392401,2.25889 0.204904,4.373602 1.08219,3.831409 0.5437,-0.336025 0.773427,-0.02508 0.510504,0.690983 -0.262923,0.716066 -0.05151,1.973176 0.469814,2.793579 0.75488,1.187957 1.200641,1.238854 2.189495,0.25 C 60.337861,44.062139 66,47.295207 66,52.290197 c 0,2.20232 0.621349,2.800027 3.800777,3.656158 C 73.614578,56.973305 78,61.485597 78,64.382782 78,65.187854 76.834998,67.231076 75.411106,68.923275 72.822213,72 72.822213,72 49.661106,71.959962 31.127885,71.927925 25.953027,71.62314 23.762571,70.434612 Z M 52.5,34 c 0.995486,-1.1 2.034975,-2 2.309975,-2 0.275,0 -0.314489,0.9 -1.309975,2 -0.995486,1.1 -2.034975,2 -2.309975,2 -0.275,0 0.314489,-0.9 1.309975,-2 z"
         id="path305" />
      <path
         style="fill:#474747"
         d="M 76.468084,55.964733 C 75.455043,54.845336 74.011927,54.165182 73.261158,54.453279 72.51039,54.741376 72.171054,54.532246 72.507079,53.988546 72.843104,53.444846 72.506876,53 71.759905,53 c -0.74697,0 -1.912174,-1.532187 -2.589341,-3.40486 -1.637999,-4.529803 -5.371785,-6.881387 -10.195671,-6.421355 -2.093662,0.199663 -3.618051,0.05785 -3.387531,-0.315139 0.782216,-1.265652 -0.790451,-3.850863 -1.942147,-3.192577 -0.629868,0.36002 -0.811619,0.286339 -0.403891,-0.163734 0.407728,-0.450074 0.272631,-1.383057 -0.300215,-2.073295 -1.514443,-1.824792 3.376689,-6.01983 8.532342,-7.318038 10.850173,-2.732105 20.812263,5.051736 20.812263,16.261584 C 82.285714,50.599394 79.958488,58 78.629307,58 78.453675,58 77.481124,57.08413 76.468084,55.964733 Z m -8.389137,-4.548066 c 0.04798,-1.164943 0.284941,-1.4019 0.604167,-0.604167 0.288871,0.721875 0.253344,1.584375 -0.07895,1.916667 -0.332292,0.332291 -0.568641,-0.258334 -0.52522,-1.3125 z"
         id="path299" />
      <path
         style="fill:#3e3e3e"
         d="m 75.507079,57.011454 c -0.350339,-0.56686 0.05106,-0.734507 0.940983,-0.393011 C 78.180479,57.283234 78.497449,58 77.059017,58 76.541476,58 75.843104,57.555154 75.507079,57.011454 Z m -6.428132,-5.594787 c 0.04798,-1.164943 0.284941,-1.4019 0.604167,-0.604167 0.288871,0.721875 0.253344,1.584375 -0.07895,1.916667 -0.332292,0.332291 -0.568641,-0.258334 -0.52522,-1.3125 z M 56.5,44 C 56.160081,43.45 56.358524,43 56.940983,43 57.523442,43 58,43.45 58,44 58,44.55 57.801558,45 57.559017,45 57.316476,45 56.839919,44.55 56.5,44 Z"
         id="path297" />
      <path
         style="fill:#2e2e2e"
         d="M 74.44113,55.444834 C 72.577105,53.951442 72.589374,53.932978 74.75,54.980018 75.9875,55.57971 77,56.279535 77,56.535184 c 0,0.76522 -0.518608,0.544238 -2.55887,-1.09035 z M 68.75,53.337719 c 0.6875,-0.277412 1.8125,-0.277412 2.5,0 0.6875,0.277413 0.125,0.504386 -1.25,0.504386 -1.375,0 -1.9375,-0.226973 -1.25,-0.504386 z M 66.08599,46.618216 C 63.671981,43.5 63.671981,43.5 66.53296,46.219697 c 1.573539,1.495833 2.659843,2.899031 2.41401,3.118216 -0.245834,0.219186 -1.533274,-1.004677 -2.86098,-2.719697 z m -6.816958,-3.311207 c 0.972967,-0.253543 2.322967,-0.236869 3,0.03705 C 62.946064,43.617986 62.15,43.825431 60.5,43.805051 58.85,43.784672 58.296064,43.560553 59.269032,43.307009 Z m -5.53347,-3.563332 C 51.971125,36.5 51.971125,36.5 53.985562,38.860784 c 1.714133,2.008846 2.630291,4.154791 1.764438,4.132893 -0.1375,-0.0035 -1.043997,-1.465977 -2.014438,-3.25 z"
         id="path295" />
    </g>
  </g>
</svg>
