<?xml version="1.0" encoding="UTF-8" standalone="no"?>
<!-- Created with Inkscape (http://www.inkscape.org/) -->

<svg
   width="18.255262mm"
   height="11.262156mm"
   viewBox="0 0 18.255262 11.262156"
   version="1.1"
   id="svg331"
   inkscape:version="1.2.1 (9c6d41e410, 2022-07-14, custom)"
   sodipodi:docname="04d.svg"
   xmlns:inkscape="http://www.inkscape.org/namespaces/inkscape"
   xmlns:sodipodi="http://sodipodi.sourceforge.net/DTD/sodipodi-0.dtd"
   xmlns="http://www.w3.org/2000/svg"
   xmlns:svg="http://www.w3.org/2000/svg">
  <sodipodi:namedview
     id="namedview333"
     pagecolor="#ffffff"
     bordercolor="#000000"
     borderopacity="0.25"
     inkscape:showpageshadow="2"
     inkscape:pageopacity="0.0"
     inkscape:pagecheckerboard="0"
     inkscape:deskcolor="#d1d1d1"
     inkscape:document-units="mm"
     showgrid="false"
     inkscape:zoom="3.316234"
     inkscape:cx="7.6894453"
     inkscape:cy="28.9485"
     inkscape:window-width="1362"
     inkscape:window-height="745"
     inkscape:window-x="0"
     inkscape:window-y="19"
     inkscape:window-maximized="1"
     inkscape:current-layer="layer1" />
  <defs
     id="defs328" />
  <g
     inkscape:label="Layer 1"
     inkscape:groupmode="layer"
     id="layer1"
     transform="translate(-67.920538,-143.31252)">
    <g
       id="g293"
       transform="matrix(0.26458333,0,0,0.26458333,63.686218,135.52468)">
      <path
         style="fill:#f0f0f0"
         d="m 22.25632,70.971176 c -2.824399,-1.135525 -6.247665,-6.650616 -6.252582,-10.073293 -0.0061,-4.220171 4.042161,-9.267924 8.279895,-10.324248 2.303076,-0.57408 3.724719,-1.524801 3.738329,-2.5 0.01208,-0.865499 0.854994,-3.407773 1.873144,-5.649496 3.148683,-6.93265 11.72574,-9.585535 16.063325,-4.968387 1.268882,1.350663 2.809824,2.363163 3.424314,2.25 0.61449,-0.113164 0.974658,0.626906 0.800373,1.6446 -0.174285,1.017694 0.121249,1.579573 0.656742,1.24862 0.570355,-0.352499 0.745759,0.269621 0.423483,1.502006 -0.322473,1.233139 0.0265,2.468876 0.843258,2.986067 1.761314,1.115301 3.169101,1.168067 2.505229,0.0939 -0.89262,-1.444289 5.820346,0.0032 7.712296,1.662932 1.093109,0.958961 1.6534,2.493357 1.398109,3.828825 -0.24403,1.276563 0.04469,2.142854 0.675875,2.027929 0.606039,-0.110346 1.021228,0.266356 0.922641,0.837118 -0.09859,0.570761 1.026413,1.129324 2.5,1.241252 3.165961,0.240473 7.16713,4.711329 7.174282,8.016455 0.0027,1.2625 -1.099578,3.4 -2.449578,4.75 L 70.090909,72 47.295455,71.936614 c -12.5375,-0.03486 -23.805111,-0.46931 -25.039135,-0.965438 z"
         id="path307" />
      <path
         style="fill:#d4d4d4"
         d="m 76.8125,60.316886 c 0.721875,-0.288871 1.584375,-0.253344 1.916667,0.07895 0.332291,0.332292 -0.258334,0.568641 -1.3125,0.52522 -1.164943,-0.04798 -1.4019,-0.284941 -0.604167,-0.604167 z M 71.872445,57.25 C 70.628574,55.663944 70.663944,55.628574 72.25,56.872445 73.915748,58.178814 74.445479,59 73.622445,59 c -0.207656,0 -0.995156,-0.7875 -1.75,-1.75 z M 52.078947,45.416667 c 0.04798,-1.164943 0.284941,-1.4019 0.604167,-0.604167 0.288871,0.721875 0.253344,1.584375 -0.07895,1.916667 -0.332292,0.332291 -0.568641,-0.258334 -0.52522,-1.3125 z M 56.75,45.337719 c 0.6875,-0.277412 1.8125,-0.277412 2.5,0 0.6875,0.277413 0.125,0.504386 -1.25,0.504386 -1.375,0 -1.9375,-0.226973 -1.25,-0.504386 z m 21.0625,-0.02083 c 0.721875,-0.288871 1.584375,-0.253344 1.916667,0.07895 0.332291,0.332292 -0.258334,0.568641 -1.3125,0.52522 -1.164943,-0.04798 -1.4019,-0.284941 -0.604167,-0.604167 z"
         id="path305" />
      <path
         style="fill:#484848"
         d="m 74.108086,56.865151 c -1.593944,-2.015285 -3.012255,-2.861968 -4.25138,-2.53793 -1.022706,0.267444 -1.607287,0.07823 -1.299069,-0.42048 C 68.865855,53.408034 68.641476,53 68.059017,53 67.476558,53 67,52.309168 67,51.464817 c 0,-2.538079 -3.176409,-6.6111 -4.699858,-6.026498 -0.773287,0.296738 -1.129557,0.09468 -0.793063,-0.449773 C 62.139354,43.965503 60.150843,43.547071 56.25,43.882325 55.0125,43.98868 54,43.582109 54,42.978832 c 0,-0.603276 -0.444846,-0.821936 -0.988546,-0.485911 -0.5437,0.336025 -0.75283,-0.0033 -0.464733,-0.754079 0.288097,-0.750769 -0.496802,-2.236641 -1.744221,-3.301938 -2.253207,-1.924242 -2.258341,-1.92383 -0.785267,0.0631 1.371015,1.849266 1.351705,1.897252 -0.256223,0.636693 -0.956444,-0.749819 -1.511603,-1.731224 -1.233688,-2.180902 0.277916,-0.449677 0.02611,-1.113751 -0.559568,-1.47572 -1.54563,-0.955252 0.842898,-3.501731 4.859222,-5.180558 2.953909,-1.234736 3.738846,-1.189333 7,0.404904 2.097674,1.025463 4.31637,3.142524 5.173024,4.936058 1.328271,2.780935 1.87111,3.080949 4.741536,2.620531 C 73.783975,37.612597 76,39.333958 76,43.122445 76,45.354649 76.458736,46 78.045455,46 80.705725,46 85,50.322342 85,53 c 0,2.587832 -4.278373,7.019436 -6.704545,6.944671 -0.9875,-0.03043 -2.871817,-1.416215 -4.187369,-3.07952 z"
         id="path299" />
      <path
         style="fill:#2f2f2f"
         d="m 74.036245,58.067725 c -0.568767,-1.062752 -1.968512,-2.22884 -3.110544,-2.591307 -1.142032,-0.362467 -1.856051,-0.879402 -1.586708,-1.148744 0.825686,-0.825687 4.553062,1.602113 5.673272,3.695244 C 75.594222,59.110313 75.845368,60 75.570368,60 c -0.275,0 -0.965356,-0.869524 -1.534123,-1.932275 z M 66,52 c 0,-1.1 0.172516,-2 0.383369,-2 0.210852,0 0.618724,0.9 0.90638,2 0.287656,1.1 0.115141,2 -0.383369,2 C 66.407871,54 66,53.1 66,52 Z M 63.907163,47.388138 C 63.171413,46.501614 61.653813,45.405137 60.534718,44.951524 59.100989,44.370377 58.965406,44.10805 60.075686,44.063386 60.942313,44.028524 62.708255,45.125 64,46.5 c 1.291745,1.375 2.100287,2.5 1.796759,2.5 -0.303528,0 -1.153847,-0.725338 -1.889596,-1.611862 z m -10.54126,-2.087374 c 0.310051,-0.310051 0.104737,-1.517063 -0.456253,-2.682247 -0.875634,-1.818704 -0.835275,-1.893816 0.285184,-0.530746 0.717841,0.873274 1.96856,1.806905 2.779376,2.074736 1.023289,0.338017 0.763629,0.672787 -0.848914,1.094476 -1.277718,0.334131 -2.069445,0.353832 -1.759393,0.04378 z M 49.139216,37.966731 C 47.840785,36.885029 47.20854,36 47.734228,36 c 0.525688,0 1.770286,0.9 2.765772,2 2.28688,2.526974 1.69506,2.512505 -1.360784,-0.03327 z"
         id="path295" />
    </g>
  </g>
</svg>
