<?xml version="1.0" encoding="UTF-8" standalone="no"?>
<!-- Created with Inkscape (http://www.inkscape.org/) -->

<svg
   width="14.807364mm"
   height="13.015279mm"
   viewBox="0 0 14.807364 13.015279"
   version="1.1"
   id="svg325"
   inkscape:version="1.2.1 (9c6d41e410, 2022-07-14, custom)"
   sodipodi:docname="09d.svg"
   xmlns:inkscape="http://www.inkscape.org/namespaces/inkscape"
   xmlns:sodipodi="http://sodipodi.sourceforge.net/DTD/sodipodi-0.dtd"
   xmlns="http://www.w3.org/2000/svg"
   xmlns:svg="http://www.w3.org/2000/svg">
  <sodipodi:namedview
     id="namedview327"
     pagecolor="#ffffff"
     bordercolor="#000000"
     borderopacity="0.25"
     inkscape:showpageshadow="2"
     inkscape:pageopacity="0.0"
     inkscape:pagecheckerboard="0"
     inkscape:deskcolor="#d1d1d1"
     inkscape:document-units="mm"
     showgrid="false"
     inkscape:zoom="3.8263658"
     inkscape:cx="-5.6189087"
     inkscape:cy="47.82606"
     inkscape:window-width="1362"
     inkscape:window-height="745"
     inkscape:window-x="0"
     inkscape:window-y="19"
     inkscape:window-maximized="1"
     inkscape:current-layer="layer1" />
  <defs
     id="defs322" />
  <g
     inkscape:label="Layer 1"
     inkscape:groupmode="layer"
     id="layer1"
     transform="translate(-176.38558,-47.821166)">
    <g
       id="g293"
       transform="matrix(0.26458333,0,0,0.26458333,170.55545,41.09391)">
      <path
         style="fill:#f0f0f0"
         d="m 36.564293,65.293128 c -0.542685,-1.425198 -0.427821,-1.540062 0.559795,-0.559795 0.683418,0.678334 0.990671,1.485241 0.682784,1.793128 -0.307887,0.307888 -0.867048,-0.247112 -1.242579,-1.233333 z M 27.110071,58.604493 C 24.269097,57.029862 22.084581,53.400328 22.035435,50.173077 21.991682,47.299959 27.106547,42 29.923077,42 31.350107,42 32,41.358638 32,39.95034 c 0,-3.391583 2.727761,-7.594934 5.737847,-8.841753 3.483049,-1.442726 9.48524,-1.132326 8.874612,0.458946 -0.472425,1.231119 2.884318,4.602356 3.735273,3.751402 0.284219,-0.284219 0.269767,0.427749 -0.03212,1.582151 -0.411988,1.575446 -0.08334,2.102733 1.317754,2.114227 1.366389,0.01121 1.5182,0.236326 0.566476,0.840015 -0.789586,0.500842 0.38851,0.789353 3,0.734687 3.814809,-0.07986 4.338621,0.182247 4.640966,2.322225 C 60.242038,45.752095 62.242955,48 64.369554,48 c 0.831827,0 1.795064,0.45734 2.140527,1.016312 0.345464,0.558971 1.159521,0.711825 1.809017,0.339675 0.649496,-0.372151 0.847306,-0.308395 0.439578,0.141678 -0.407728,0.450074 -0.285555,1.367484 0.271495,2.038689 1.486023,1.790548 -0.523397,6.320473 -3.266279,7.363314 -1.249585,0.475092 -7.082654,0.87619 -12.962376,0.89133 -10.286299,0.02649 -10.751734,-0.06608 -12.312861,-2.448657 -1.299653,-1.983521 -1.905398,-2.241365 -3.044546,-1.295956 -0.782148,0.649126 -1.132514,1.648769 -0.77859,2.22143 0.373701,0.604661 0.159451,0.742045 -0.511011,0.327677 C 35.519529,58.203052 35,58.358524 35,58.940983 c 0,1.474375 -5.008092,1.26079 -7.889929,-0.33649 z"
         id="path303" />
      <path
         style="fill:#d1d1d1"
         d="m 52.014286,61.585714 c 0.647619,-0.647619 1.323809,-0.647619 1.971428,0 0.647619,0.647619 0.309524,0.985715 -0.985714,0.985715 -1.295238,0 -1.633333,-0.338096 -0.985714,-0.985715 z M 69.8125,50.316886 c 0.721875,-0.288871 1.584375,-0.253344 1.916667,0.07895 0.332291,0.332292 -0.258334,0.568641 -1.3125,0.52522 -1.164943,-0.04798 -1.4019,-0.284941 -0.604167,-0.604167 z"
         id="path301" />
      <path
         style="fill:#474747"
         d="m 48.525515,74.041284 c -0.413188,-0.668552 -0.25796,-1.708839 0.344951,-2.31175 1.536145,-1.536145 2.509332,-0.230613 1.35958,1.823879 -0.699647,1.250202 -1.153161,1.380006 -1.704531,0.487871 z M 40,72.5 c 0,-0.916667 0.48375,-1.505417 1.075,-1.308333 0.59125,0.197083 1.075,0.785833 1.075,1.308333 0,0.5225 -0.48375,1.11125 -1.075,1.308333 C 40.48375,74.005417 40,73.416667 40,72.5 Z M 33.757735,69.424402 C 32.896895,68.563561 34.731228,65 36.035184,65 c 1.327462,0 1.20806,1.285084 -0.312632,3.364755 -0.702597,0.960858 -1.586764,1.437699 -1.964817,1.059647 z m 8.864021,-1.227397 C 41.847082,66.943556 42.888745,64 44.106989,64 c 1.127516,0 1.12897,2.079274 0.0027,3.856763 -0.539292,0.851113 -1.093826,0.977917 -1.487931,0.340242 z M 52,63.5 c 0,-0.825 0.45,-1.5 1,-1.5 0.55,0 1,0.675 1,1.5 0,0.825 -0.45,1.5 -1,1.5 -0.55,0 -1,-0.675 -1,-1.5 z M 68.981041,47.479819 C 67.669265,46.083498 66.066394,45.144281 65.419104,45.392669 64.761619,45.64497 63.547093,44.074681 62.667183,41.834648 61.772586,39.557225 60.640235,38.104313 60.046077,38.471523 59.470734,38.827104 59,38.614919 59,38 59,37.385081 58.588435,37.136327 58.08541,37.447214 57.582386,37.7581 56.941645,37.447157 56.661541,36.756231 56.253955,35.750844 55.973465,35.752918 55.256846,36.766611 54.596425,37.700813 53.526681,36.99449 51.180715,34.07525 49.431322,31.898365 48,29.617927 48,29.007612 c 0,-0.610316 1.610319,-1.782499 3.578486,-2.604852 3.278737,-1.369944 3.844144,-1.340487 6.75,0.351663 1.779567,1.036285 3.31535,2.839509 3.49924,4.108597 0.277285,1.913636 0.758461,2.167142 3.126288,1.64708 C 68.151034,31.807917 71,33.957288 71,37.071429 71,38.314575 71.690658,39 72.943296,39 74.864779,39 78,42.429524 78,44.531377 c 0,1.734411 -2.322131,4.214157 -4.566957,4.87694 -1.444275,0.426421 -2.785464,-0.154549 -4.452002,-1.928498 z"
         id="path297" />
      <path
         style="fill:#2c2c2c"
         d="m 37,59 c 0,-0.55 0.45,-1 1,-1 0.55,0 1,0.45 1,1 0,0.55 -0.45,1 -1,1 -0.55,0 -1,-0.45 -1,-1 z M 67.285733,47.39441 C 66.067887,46.077484 65.426945,45 65.861419,45 66.295893,45 67.708255,46.125 69,47.5 c 1.291745,1.375 1.932687,2.452484 1.424314,2.39441 -0.508373,-0.05808 -1.920734,-1.183075 -3.138581,-2.5 z M 62,43.059017 C 62,41.991476 61.55,40.839919 61,40.5 c -0.55,-0.339919 -1,-1.068034 -1,-1.618034 0,-1.866314 1.798078,0.100043 2.849515,3.116196 C 63.484724,43.820326 63.52342,45 62.94798,45 62.426591,45 62,44.126558 62,43.059017 Z M 52,37.076725 c 0,-0.507801 -1.23277,-2.420301 -2.739488,-4.25 -1.506719,-1.829699 -1.935713,-2.691691 -0.95332,-1.915539 C 50.941389,32.992368 54.304554,38 53.068094,38 52.480642,38 52,37.584526 52,37.076725 Z"
         id="path295" />
    </g>
  </g>
</svg>
