<?xml version="1.0" encoding="UTF-8" standalone="no"?>
<!-- Created with Inkscape (http://www.inkscape.org/) -->

<svg
   width="13.617901mm"
   height="12.951944mm"
   viewBox="0 0 13.617901 12.951944"
   version="1.1"
   id="svg339"
   inkscape:version="1.2.1 (9c6d41e410, 2022-07-14, custom)"
   sodipodi:docname="10d.svg"
   xmlns:inkscape="http://www.inkscape.org/namespaces/inkscape"
   xmlns:sodipodi="http://sodipodi.sourceforge.net/DTD/sodipodi-0.dtd"
   xmlns="http://www.w3.org/2000/svg"
   xmlns:svg="http://www.w3.org/2000/svg">
  <sodipodi:namedview
     id="namedview341"
     pagecolor="#ffffff"
     bordercolor="#000000"
     borderopacity="0.25"
     inkscape:showpageshadow="2"
     inkscape:pageopacity="0.0"
     inkscape:pagecheckerboard="0"
     inkscape:deskcolor="#d1d1d1"
     inkscape:document-units="mm"
     showgrid="false"
     inkscape:zoom="3.9787344"
     inkscape:cx="21.991918"
     inkscape:cy="36.946422"
     inkscape:window-width="1362"
     inkscape:window-height="745"
     inkscape:window-x="0"
     inkscape:window-y="19"
     inkscape:window-maximized="1"
     inkscape:current-layer="layer1" />
  <defs
     id="defs336" />
  <g
     inkscape:label="Layer 1"
     inkscape:groupmode="layer"
     id="layer1"
     transform="translate(-92.345587,-134.11222)">
    <g
       id="g307"
       transform="matrix(0.26458333,0,0,0.26458333,85.995587,127.32082)">
      <path
         style="fill:#f1f1f1"
         d="m 38.564293,65.293128 c -0.542685,-1.425198 -0.427821,-1.540062 0.559795,-0.559795 0.683418,0.678334 0.990671,1.485241 0.682784,1.793128 -0.307887,0.307888 -0.867048,-0.247112 -1.242579,-1.233333 z m 15.16904,-3.417216 c 0.678334,-0.683418 1.485241,-0.990671 1.793128,-0.682784 0.307888,0.307887 -0.247112,0.867048 -1.233333,1.242579 -1.425198,0.542685 -1.540062,0.427821 -0.559795,-0.559795 z M 39,61.606989 c 0,-0.216156 0.698372,-0.661002 1.551938,-0.988546 0.889925,-0.341496 1.291322,-0.173849 0.940983,0.393011 C 40.905663,61.961658 39,62.416902 39,61.606989 Z m 9.000759,-2.426665 c -2.5771,-0.183106 -4.841204,-0.930732 -5.29969,-1.75 C 41.662916,55.575246 39.57168,55.606241 38,57.5 37.294287,58.350333 35.114197,59 32.966449,59 29.963459,59 28.640917,58.361966 26.588894,55.923275 25.165002,54.231076 24,51.958729 24,50.873615 c 0,-3.700729 2.870674,-7.67583 6.379481,-8.83384 2.762848,-0.911822 3.536432,-1.778014 4.054576,-4.539961 C 35.83472,30.033637 45.064197,27.45513 50.894245,32.90121 52.60241,34.496875 54,36.431515 54,37.200409 c 0,0.999145 0.963379,1.28552 3.376744,1.003774 2.661286,-0.31069 3.720676,0.09682 5,1.923307 C 63.269535,41.402127 64,43.244885 64,44.222506 64,45.270729 64.742145,46 65.80887,46 c 4.879071,0 7.65046,6.123835 4.764616,10.52819 -1.35558,2.068878 -2.428966,2.35893 -9.797922,2.647611 -4.55156,0.17831 -10.300222,0.180345 -12.774805,0.0045 z"
         id="path317" />
      <path
         style="fill:#eb6d4b"
         d="m 70.281012,46.656965 c 0.120443,-0.636331 -0.563669,-1.095272 -1.52025,-1.01987 -0.956581,0.0754 -1.492523,-0.262097 -1.190983,-0.75 0.514497,-0.832473 -0.980927,-1.322716 -2.94246,-0.964622 -0.479975,0.08762 -0.581625,-0.599166 -0.22589,-1.526197 0.708556,-1.846468 -2.115028,-5.691315 -3.535076,-4.813678 C 60.389859,37.877088 60,37.641476 60,37.059017 60,35.552586 56.016478,35.739101 55.921053,37.25 c -0.04342,0.6875 -0.531856,0.0097 -1.085411,-1.506231 -0.605276,-1.657568 -1.47068,-2.490534 -2.171052,-2.089674 -0.640525,0.366605 -0.830994,0.298313 -0.423266,-0.15176 0.407728,-0.450074 0.28736,-1.36531 -0.267486,-2.033858 -0.72384,-0.872174 -0.26182,-1.704989 1.635573,-2.948209 4.133044,-2.708074 7.994509,-3.468416 11.999125,-2.362688 7.431974,2.052067 11.618517,10.010984 9.150975,17.396659 -0.72793,2.178789 -1.985017,3.873244 -2.978499,4.014786 -0.945444,0.134697 -1.620444,-0.27573 -1.5,-0.91206 z"
         id="path313" />
      <path
         style="fill:#4f4e50"
         d="M 50.565854,74.106554 C 49.835178,72.924296 50.932627,70 52.106989,70 c 1.183506,0 1.151866,3.721985 -0.03789,4.457295 -0.511996,0.316431 -1.188456,0.158597 -1.503245,-0.350741 z M 42,72.5 c 0,-0.916667 0.48375,-1.505417 1.075,-1.308333 0.59125,0.197083 1.075,0.785833 1.075,1.308333 0,0.5225 -0.48375,1.11125 -1.075,1.308333 C 42.48375,74.005417 42,73.416667 42,72.5 Z M 35.775429,69.442095 C 34.733926,68.400592 36.22534,65 37.72362,65 c 0.948169,0 1.269536,0.575451 0.883369,1.581787 C 38.273145,67.451771 38,68.576771 38,69.081787 c 0,1.014564 -1.351428,1.233452 -2.224571,0.360308 z m 8.790425,-1.335541 C 43.835178,66.924296 44.932627,64 46.106989,64 c 1.183506,0 1.151866,3.721985 -0.03789,4.457295 -0.511996,0.316431 -1.188456,0.158597 -1.503245,-0.350741 z M 54,63.5 c 0,-0.825 0.45,-1.5 1,-1.5 0.55,0 1,0.675 1,1.5 0,0.825 -0.45,1.5 -1,1.5 -0.55,0 -1,-0.675 -1,-1.5 z M 39,59.559017 c 0,-1.614066 1.416299,-2.809384 2.291619,-1.934065 C 42.071995,58.405329 40.996773,61 39.893011,61 39.401855,61 39,60.351558 39,59.559017 Z"
         id="path309" />
    </g>
  </g>
</svg>
