<?xml version="1.0" encoding="UTF-8" standalone="no"?>
<!-- Created with Inkscape (http://www.inkscape.org/) -->

<svg
   width="13.616161mm"
   height="12.933869mm"
   viewBox="0 0 13.616161 12.933869"
   version="1.1"
   id="svg325"
   inkscape:version="1.2.1 (9c6d41e410, 2022-07-14, custom)"
   sodipodi:docname="10n.svg"
   xmlns:inkscape="http://www.inkscape.org/namespaces/inkscape"
   xmlns:sodipodi="http://sodipodi.sourceforge.net/DTD/sodipodi-0.dtd"
   xmlns="http://www.w3.org/2000/svg"
   xmlns:svg="http://www.w3.org/2000/svg">
  <sodipodi:namedview
     id="namedview327"
     pagecolor="#ffffff"
     bordercolor="#000000"
     borderopacity="0.25"
     inkscape:showpageshadow="2"
     inkscape:pageopacity="0.0"
     inkscape:pagecheckerboard="0"
     inkscape:deskcolor="#d1d1d1"
     inkscape:document-units="mm"
     showgrid="false"
     inkscape:zoom="3.8513027"
     inkscape:cx="-26.354719"
     inkscape:cy="16.877406"
     inkscape:window-width="1362"
     inkscape:window-height="745"
     inkscape:window-x="0"
     inkscape:window-y="19"
     inkscape:window-maximized="1"
     inkscape:current-layer="layer1" />
  <defs
     id="defs322" />
  <g
     inkscape:label="Layer 1"
     inkscape:groupmode="layer"
     id="layer1"
     transform="translate(-145.42853,-143.34873)">
    <g
       id="g293"
       transform="matrix(0.26458333,0,0,0.26458333,139.07853,136.54006)">
      <path
         style="fill:#f1f1f1"
         d="m 38.564293,65.293128 c -0.542685,-1.425198 -0.427821,-1.540062 0.559795,-0.559795 0.683418,0.678334 0.990671,1.485241 0.682784,1.793128 -0.307887,0.307888 -0.867048,-0.247112 -1.242579,-1.233333 z m 9.436466,-6.112804 c -2.5771,-0.183106 -4.841204,-0.930732 -5.29969,-1.75 C 41.662916,55.575246 39.57168,55.606241 38,57.5 37.294287,58.350333 35.114197,59 32.966449,59 29.963459,59 28.640917,58.361966 26.588894,55.923275 25.165002,54.231076 24,51.958729 24,50.873615 c 0,-3.700729 2.870674,-7.67583 6.379481,-8.83384 2.762848,-0.911822 3.536432,-1.778014 4.054576,-4.539961 C 35.716621,30.66316 45.664578,27.179242 49.42434,32.25 c 0.917556,1.2375 1.350297,1.575 0.961647,0.75 -0.414236,-0.879309 -0.329951,-1.155172 0.203688,-0.666667 0.938481,0.859109 1.072319,1.333896 1.285325,4.559678 0.163445,2.475231 2.276948,3.210596 6.086996,2.117889 1.711622,-0.490887 2.838965,-0.497864 2.540987,-0.01573 -0.294584,0.476646 -0.07827,1.149281 0.480705,1.494745 C 61.54266,40.835382 62,42.186152 62,43.491629 c 0,2.53343 3.002056,4.201754 5.241051,2.912593 0.692422,-0.39868 0.936709,-0.367987 0.542861,0.06821 -0.393849,0.436194 0.393651,1.666001 1.75,2.732905 2.828125,2.224604 3.110609,4.429469 0.960741,7.498837 -1.295333,1.849347 -2.655575,2.194291 -9.75,2.472506 -4.534559,0.177827 -10.269311,0.179468 -12.743894,0.0036 z"
         id="path303" />
      <path
         style="fill:#484848"
         d="m 50.525515,74.041284 c -0.413188,-0.668552 -0.25796,-1.708839 0.344951,-2.31175 1.536145,-1.536145 2.509332,-0.230613 1.35958,1.823879 -0.699647,1.250202 -1.153161,1.380006 -1.704531,0.487871 z M 42.552786,73.08541 c -0.321975,-0.520967 -0.159164,-1.210648 0.361804,-1.532624 0.520967,-0.321975 1.210648,-0.159164 1.532624,0.361804 0.321975,0.520967 0.159164,1.210648 -0.361804,1.532624 -0.520967,0.321975 -1.210648,0.159164 -1.532624,-0.361804 z M 35.757735,69.424402 C 34.896895,68.563561 36.731228,65 38.035184,65 c 1.327462,0 1.20806,1.285084 -0.312632,3.364755 -0.702597,0.960858 -1.586764,1.437699 -1.964817,1.059647 z M 44.015313,67.25 c 0.0084,-0.4125 0.433954,-1.411968 0.945627,-2.22104 1.152134,-1.821787 2.503797,-0.682429 1.693983,1.427912 -0.598079,1.558571 -2.667936,2.180504 -2.63961,0.793128 z M 54,63.5 c 0,-0.825 0.45,-1.5 1,-1.5 0.55,0 1,0.675 1,1.5 0,0.825 -0.45,1.5 -1,1.5 -0.55,0 -1,-0.675 -1,-1.5 z M 70.59165,46.443357 c -1.037462,-0.75861 -2.339528,-1.099177 -2.89348,-0.756816 -0.571447,0.353174 -0.698494,0.123 -0.293662,-0.532033 C 67.859968,44.417559 67.33464,44 65.952028,44 64.352881,44 63.951185,43.569592 64.417121,42.355382 65.110732,40.547863 62.262671,36.719626 60.866353,37.582598 60.389859,37.877088 60,37.641476 60,37.059017 60,35.55092 56.008152,35.739667 55.960858,37.25 55.93933,37.9375 55.286053,37.0375 54.509132,35.25 53.732211,33.4625 52.823267,32 52.489257,32 c -0.33401,0 -0.283587,0.5625 0.112051,1.25 0.395639,0.6875 0.334171,0.899475 -0.136594,0.471056 -4.227278,-3.847032 5.769559,-9.599609 13.143822,-7.563476 7.224008,1.994644 11.360744,9.529074 9.344005,17.01867 -1.221179,4.53511 -1.915457,5.055252 -4.360891,3.267107 z"
         id="path297" />
      <path
         style="fill:#333333"
         d="m 39,59 c 0,-0.55 0.45,-1 1,-1 0.55,0 1,0.45 1,1 0,0.55 -0.45,1 -1,1 -0.55,0 -1,-0.45 -1,-1 z M 69.556106,47.061997 C 68.585376,45.989351 66.825634,44.922874 65.645571,44.692048 63.681168,44.307801 63.668876,44.262743 65.5,44.158418 c 2.163991,-0.123289 7.336953,3.337962 6.395595,4.27932 -0.315988,0.315988 -1.368758,-0.303095 -2.339489,-1.375741 z M 62.605952,39.152059 60.711904,36.5 l 2.338492,2.222222 c 1.286171,1.222222 2.138493,2.415649 1.894048,2.65206 C 64.7,41.610692 63.647678,40.610692 62.605952,39.152059 Z M 52.78986,34.217435 51.079721,30.5 53.03986,32.860784 c 1.078077,1.298431 1.96014,2.985931 1.96014,3.75 0,2.05693 -0.324546,1.705481 -2.21014,-2.393349 z M 56.75,36.337719 c 0.6875,-0.277412 1.8125,-0.277412 2.5,0 0.6875,0.277413 0.125,0.504386 -1.25,0.504386 -1.375,0 -1.9375,-0.226973 -1.25,-0.504386 z"
         id="path295" />
    </g>
  </g>
</svg>
