<?xml version="1.0" encoding="UTF-8" standalone="no"?>
<!-- Created with Inkscape (http://www.inkscape.org/) -->

<svg
   width="17.29821mm"
   height="13.973942mm"
   viewBox="0 0 17.29821 13.973942"
   version="1.1"
   id="svg3124"
   inkscape:version="1.2.1 (9c6d41e410, 2022-07-14, custom)"
   sodipodi:docname="11d.svg"
   xmlns:inkscape="http://www.inkscape.org/namespaces/inkscape"
   xmlns:sodipodi="http://sodipodi.sourceforge.net/DTD/sodipodi-0.dtd"
   xmlns="http://www.w3.org/2000/svg"
   xmlns:svg="http://www.w3.org/2000/svg">
  <sodipodi:namedview
     id="namedview3126"
     pagecolor="#ffffff"
     bordercolor="#000000"
     borderopacity="0.25"
     inkscape:showpageshadow="2"
     inkscape:pageopacity="0.0"
     inkscape:pagecheckerboard="0"
     inkscape:deskcolor="#d1d1d1"
     inkscape:document-units="mm"
     showgrid="false"
     inkscape:zoom="6.2914496"
     inkscape:cx="15.338277"
     inkscape:cy="33.537581"
     inkscape:window-width="1362"
     inkscape:window-height="745"
     inkscape:window-x="0"
     inkscape:window-y="19"
     inkscape:window-maximized="1"
     inkscape:current-layer="layer1" />
  <defs
     id="defs3121" />
  <g
     inkscape:label="Layer 1"
     inkscape:groupmode="layer"
     id="layer1"
     transform="translate(-121.82782,-152.42841)">
    <g
       id="g709"
       style="display:inline"
       transform="matrix(0.26458333,0,0,0.26458333,117.24048,146.16173)">
      <path
         style="display:inline;fill:#f0f0f0"
         d="M 23.25632,62.971176 C 19.71263,61.546467 16.8159,56.103533 17.417458,52 18.031721,47.809797 22.894061,43 26.515777,43 28.511851,43 29,42.498993 29,40.45034 29,34.334276 34.518948,29 40.846748,29 c 2.10306,0 3.807198,0.980774 5.955471,3.427522 1.655173,1.885137 3.2463,3.190625 3.53584,2.901086 0.289539,-0.289539 0.261038,0.488443 -0.06334,1.72885 -0.407728,1.559156 -0.232482,2.034469 0.567753,1.539897 C 51.502282,38.189573 52,38.466315 52,39.240964 c 0,0.987244 1.313302,1.298666 4.800962,1.138448 l 4.800963,-0.22055 0.241411,3.584623 c 0.317947,4.721063 0.926898,5.533592 3.743619,4.995142 1.445191,-0.276266 2.108081,-0.0542 1.718738,0.575769 -0.384127,0.62153 0.01698,0.775759 1.018266,0.391531 1.018599,-0.390873 1.56079,-0.168458 1.414045,0.580061 -0.130902,0.667707 0.357944,1.090363 1.086326,0.939235 0.728381,-0.151127 1.058541,0.155279 0.733688,0.680902 -0.324853,0.525623 -0.133301,1.23833 0.42567,1.583794 1.84615,1.140983 1.057153,5.560149 -1.438233,8.055536 -2.341877,2.341876 -3.018934,2.453842 -14.75,2.439232 C 47.487475,63.97434 43.986457,63.655002 45,63 c 0.825,-0.533156 0.985645,-0.976265 0.356989,-0.984687 -1.549104,-0.02075 -2.645122,-3.12718 -1.505443,-4.266859 0.50441,-0.50441 0.691678,-1.779163 0.416151,-2.832782 -0.781342,-2.987857 -6.758718,-2.622106 -8.83084,0.540352 -0.885086,1.350813 -1.275932,2.995342 -0.868544,3.654508 0.430281,0.69621 0.318142,0.937327 -0.267577,0.575333 -0.554554,-0.342733 -1.514435,0.487738 -2.133069,1.845492 -1.203353,2.641072 -4.570343,3.185081 -8.911347,1.439819 z"
         id="path731" />
      <path
         style="fill:#8b8b8b"
         d="M 33.969257,71.667095 C 36.400273,65.881592 36.38972,66 34.47432,66 33.112453,66 33.11521,65.677888 34.5,63 c 0.853248,-1.65 1.319209,-3 1.035468,-3 -0.283741,0 0.254711,-0.9 1.19656,-2 0.94185,-1.1 2.522819,-2 3.513266,-2 1.701215,0 1.708251,0.141267 0.127204,2.554249 -1.599609,2.441312 -1.583658,2.577771 0.360772,3.086251 2.864249,0.749018 1.985567,2.890039 -3.841168,9.3595 l -4.953588,5.5 z"
         id="path719" />
      <path
         style="fill:#7b7b7b"
         d="m 33.5,63 c 0.853248,-1.65 1.77636,-3 2.05136,-3 0.275,0 -0.198112,1.35 -1.05136,3 -0.853248,1.65 -1.77636,3 -2.05136,3 -0.275,0 0.198112,-1.35 1.05136,-3 z m 6.904383,-4.25 c 1.56745,-2.625588 1.552446,-2.75 -0.33164,-2.75 -1.085349,0 -2.479701,0.7875 -3.098558,1.75 -1.050833,1.634344 -1.087161,1.628939 -0.54969,-0.08179 C 36.741023,56.660729 37,55.648229 37,55.418213 37,55.188196 38.35,55 40,55 c 3.535702,0 3.67388,0.643365 0.859094,4 l -2.096434,2.5 z"
         id="path717" />
      <path
         style="fill:#474747"
         d="M 72.319197,50.623028 C 72.418639,50.094044 71.040759,48.72496 69.257242,47.580619 67.473726,46.436279 65.735656,44.480383 65.394865,43.234184 64.493512,39.938132 60.23786,37 56.365141,37 54.514314,37 53,36.523442 53,35.940983 c 0,-0.582459 -0.519529,-0.737931 -1.154508,-0.345491 -0.742393,0.458823 -0.88188,0.272402 -0.390762,-0.522244 0.461328,-0.746444 -0.273614,-2.318541 -1.856063,-3.970262 l -2.619811,-2.734494 2.431468,-2.284246 c 3.718846,-3.493674 9.262814,-3.133681 12.80573,0.831531 C 63.747224,28.629454 65,30.715286 65,31.55096 c 0,1.194633 0.415287,1.297153 1.942853,0.479624 2.859806,-1.530521 7.049198,0.679672 7.728754,4.077451 0.358993,1.794967 1.360476,2.934185 2.924522,3.326736 1.308214,0.328341 3.112758,1.717494 4.010097,3.087007 1.376219,2.100375 1.436632,2.960541 0.386061,5.496842 -0.685006,1.653751 -2.201,3.226069 -3.368876,3.49404 -3.085581,0.707991 -6.513606,0.224238 -6.304214,-0.889632 z"
         id="path715" />
    </g>
    <path
       style="fill:#ec6e4c;fill-opacity:1;stroke-width:0.0"
       d="m 125.80094,166.1977 c 0.0141,-0.0373 0.20925,-0.50564 0.4336,-1.04072 0.60166,-1.43501 0.61852,-1.53727 0.2535,-1.53727 -0.21993,0 -0.38289,-0.0609 -0.38289,-0.14304 0,-0.0272 0.12491,-0.31306 0.27757,-0.63532 0.16235,-0.34271 0.2816,-0.65742 0.28729,-0.75818 0.007,-0.11803 0.0581,-0.23306 0.1634,-0.36536 0.39104,-0.49132 0.6921,-0.68622 1.07153,-0.69368 0.34597,-0.007 0.35065,0.0615 0.038,0.55462 -0.2727,0.43016 -0.48373,0.8707 -0.37312,0.7789 0.0403,-0.0334 0.0753,-0.0373 0.0921,-0.01 0.0149,0.0241 0.15999,0.0881 0.32238,0.14215 0.19149,0.0637 0.3205,0.13679 0.36711,0.20792 0.21246,0.32426 -0.18241,0.92125 -1.79151,2.70853 -0.80509,0.89423 -0.79327,0.8819 -0.75902,0.79149 z"
       id="path3083" />
    <path
       style="fill:#ec6e4c;fill-opacity:1;stroke-width:0.0"
       d="m 127.82482,161.97809 c -5.6e-4,-0.0198 0.0906,-0.19481 0.20252,-0.38888 0.29497,-0.51139 0.27314,-0.63795 -0.11002,-0.63795 -0.339,0 -0.74792,0.21651 -0.91281,0.48331 -0.0526,0.085 -0.10473,0.14549 -0.11591,0.1343 -0.0112,-0.0112 0.025,-0.1857 0.0804,-0.3878 0.12048,-0.43964 0.10698,-0.4328 0.85484,-0.43312 0.9364,-3.9e-4 0.94395,0.10977 0.0802,1.17023 -0.043,0.0528 -0.0786,0.0797 -0.0791,0.0599 z"
       id="path3085" />
    <path
       style="fill:#ec6e4c;fill-opacity:1;stroke-width:0.0"
       d="m 125.8342,163.52348 c 0.001,-0.18962 0.73067,-1.49439 0.79785,-1.42721 0.0371,0.0371 -0.23048,0.63605 -0.45648,1.02154 -0.21948,0.37437 -0.34214,0.52013 -0.34137,0.40567 z"
       id="path3087" />
  </g>
</svg>
