<?xml version="1.0" encoding="UTF-8" standalone="no"?>
<!-- Created with Inkscape (http://www.inkscape.org/) -->

<svg
   width="9.5249996mm"
   height="10.734734mm"
   viewBox="0 0 9.5249996 10.734734"
   version="1.1"
   id="svg328"
   inkscape:version="1.2.1 (9c6d41e410, 2022-07-14, custom)"
   sodipodi:docname="13d.svg"
   xmlns:inkscape="http://www.inkscape.org/namespaces/inkscape"
   xmlns:sodipodi="http://sodipodi.sourceforge.net/DTD/sodipodi-0.dtd"
   xmlns="http://www.w3.org/2000/svg"
   xmlns:svg="http://www.w3.org/2000/svg">
  <sodipodi:namedview
     id="namedview330"
     pagecolor="#ffffff"
     bordercolor="#000000"
     borderopacity="0.25"
     inkscape:showpageshadow="2"
     inkscape:pageopacity="0.0"
     inkscape:pagecheckerboard="0"
     inkscape:deskcolor="#d1d1d1"
     inkscape:document-units="mm"
     showgrid="false"
     inkscape:zoom="5.9422018"
     inkscape:cx="7.3205188"
     inkscape:cy="36.013587"
     inkscape:window-width="1362"
     inkscape:window-height="745"
     inkscape:window-x="0"
     inkscape:window-y="19"
     inkscape:window-maximized="1"
     inkscape:current-layer="layer1" />
  <defs
     id="defs325" />
  <g
     inkscape:label="Layer 1"
     inkscape:groupmode="layer"
     id="layer1"
     transform="translate(-118.16297,-100.43713)">
    <g
       id="g293"
       transform="matrix(0.26458333,0,0,0.26458333,109.6963,92.386451)">
      <path
         style="fill:#474747"
         d="m 49,68 c 0,-3.286828 -1.072159,-3.822907 -3,-1.5 -0.684689,0.825 -1.639789,1.5 -2.122445,1.5 -1.786619,0 -0.787466,-2.497733 2.254727,-5.63648 3.214775,-3.316806 3.351849,-5.856775 0.377664,-6.998077 -2.211775,-0.848738 -4.01227,1.030096 -5.388242,5.622682 C 39.709136,65.702856 37.444044,66.529781 38.35,62 c 0.664318,-3.321588 0.438451,-3.492334 -2.523101,-1.907359 -1.432622,0.766716 -2.356458,0.7778 -3.097098,0.03716 -0.74064,-0.74064 -0.261179,-1.357472 1.60736,-2.06789 C 37.696806,56.784577 37.791713,55 34.5,55 32.896674,55 32,54.437826 32,53.432612 c 0,-1.150397 0.598593,-1.395329 2.25,-0.920653 1.2375,0.355704 3.0375,0.866353 4,1.134776 C 41.317161,54.502106 44,53.0339 44,50.5 44,47.553846 41.569551,46.68947 36.983674,48.004682 32.418576,49.313935 32,49.271547 32,47.5 c 0,-0.960979 0.988206,-1.512923 2.75,-1.535963 l 2.75,-0.03596 -2.858392,-2.33803 C 31.561445,41.070615 32.499435,39.126555 35.913592,40.953756 38.780618,42.488142 39.010724,42.30362 38.35,39 c -0.972516,-4.862581 1.506811,-3.56407 2.860787,1.498295 1.218285,4.555032 3.122927,6.078349 6.148336,4.917391 C 49.867177,44.453255 49.322841,41.683484 46,38.5 43.109332,35.730564 42.05561,33 43.877555,33 44.360211,33 45.315311,33.675 46,34.5 c 1.826612,2.200933 3,1.832887 3,-0.940983 0,-1.342541 0.45,-2.719098 1,-3.059017 0.583423,-0.360575 1,0.656282 1,2.440983 C 51,36.282186 52.06262,36.8344 54,34.5 54.684689,33.675 55.639789,33 56.122445,33 57.94439,33 56.890668,35.730564 54,38.5 c -3.340721,3.200613 -3.694839,4.678445 -1.547988,6.460174 2.551166,2.117279 5.217571,0.291609 6.55602,-4.488863 1.411272,-5.040569 3.457226,-6.094678 2.772357,-1.428364 -0.363625,2.477533 -0.15245,2.920981 1.136501,2.386547 C 66.356824,40.003203 68,39.815288 68,40.848185 68,41.442981 67.1,42.411298 66,43 64.9,43.588702 64,44.504535 64,45.035184 64,45.565833 64.9,46 66,46 c 1.111111,0 2,0.666667 2,1.5 0,1.780155 -0.349508,1.808321 -5.318208,0.428586 -2.830135,-0.785887 -4.188726,-0.752758 -5.25,0.128022 -3.368608,2.795696 -0.230153,6.858576 4.318208,5.590127 0.9625,-0.268423 2.7625,-0.779072 4,-1.134776 C 67.401407,52.037283 68,52.282215 68,53.432612 68,54.333333 67.149328,55 66,55 c -1.1,0 -2,0.434167 -2,0.964816 0,0.530649 0.9,1.446482 2,2.035184 1.1,0.588702 2,1.557019 2,2.151815 0,1.032897 -1.643176,0.844982 -5.08311,-0.581309 -1.288951,-0.534434 -1.500126,-0.09099 -1.136501,2.386547 0.684869,4.666314 -1.361085,3.612205 -2.772357,-1.428364 -1.338449,-4.780472 -4.004854,-6.606142 -6.55602,-4.488863 C 50.305161,57.821555 50.659279,59.299387 54,62.5 56.890668,65.269436 57.94439,68 56.122445,68 55.639789,68 54.684689,67.325 54,66.5 52.072159,64.177093 51,64.713172 51,68 c 0,1.65 -0.45,3 -1,3 -0.55,0 -1,-1.35 -1,-3 z M 51.418213,53.393011 C 52.288196,53.059167 53,51.757312 53,50.5 c 0,-2.464133 -2.083361,-3.788978 -4.5,-2.861626 -1.813428,0.695877 -2.001896,4.99244 -0.25,5.699345 0.6875,0.277413 1.325696,0.539913 1.418213,0.583334 0.09252,0.04342 0.880016,-0.194198 1.75,-0.528042 z"
         id="path295" />
    </g>
  </g>
</svg>
