<?xml version="1.0" encoding="UTF-8" standalone="no"?>
<!-- Created with Inkscape (http://www.inkscape.org/) -->

<svg
   width="14.159746mm"
   height="8.7312498mm"
   viewBox="0 0 14.159746 8.7312498"
   version="1.1"
   id="svg455"
   inkscape:version="1.2.1 (9c6d41e410, 2022-07-14, custom)"
   sodipodi:docname="50d.svg"
   xmlns:inkscape="http://www.inkscape.org/namespaces/inkscape"
   xmlns:sodipodi="http://sodipodi.sourceforge.net/DTD/sodipodi-0.dtd"
   xmlns="http://www.w3.org/2000/svg"
   xmlns:svg="http://www.w3.org/2000/svg">
  <sodipodi:namedview
     id="namedview457"
     pagecolor="#ffffff"
     bordercolor="#000000"
     borderopacity="0.25"
     inkscape:showpageshadow="2"
     inkscape:pageopacity="0.0"
     inkscape:pagecheckerboard="0"
     inkscape:deskcolor="#d1d1d1"
     inkscape:document-units="mm"
     showgrid="false"
     inkscape:zoom="6.1635193"
     inkscape:cx="18.252559"
     inkscape:cy="31.151034"
     inkscape:window-width="1362"
     inkscape:window-height="745"
     inkscape:window-x="0"
     inkscape:window-y="19"
     inkscape:window-maximized="1"
     inkscape:current-layer="layer1" />
  <defs
     id="defs452" />
  <g
     inkscape:label="Layer 1"
     inkscape:groupmode="layer"
     id="layer1"
     transform="translate(-97.478563,-135.91104)">
    <path
       style="fill:#2f2f31;stroke-width:0.264583;fill-opacity:1"
       d="m 101.31956,144.37771 c 0,-0.16169 1.23472,-0.26458 3.175,-0.26458 1.94027,0 3.175,0.10289 3.175,0.26458 0,0.16169 -1.23473,0.26458 -3.175,0.26458 -1.94028,0 -3.175,-0.10289 -3.175,-0.26458 z m -1.587498,-1.5875 c 0,-0.16734 1.896178,-0.26458 5.159368,-0.26458 3.2632,0 5.15938,0.0972 5.15938,0.26458 0,0.16734 -1.89618,0.26458 -5.15938,0.26458 -3.26319,0 -5.159368,-0.0972 -5.159368,-0.26458 z m -2.24896,-1.5875 c -0.10695,-0.17304 1.67815,-0.26458 5.159368,-0.26458 3.48123,0 5.26632,0.0915 5.15938,0.26458 -0.0997,0.16127 -2.11421,0.26458 -5.15938,0.26458 -3.045158,0 -5.059698,-0.10331 -5.159368,-0.26458 z m 3.836458,-1.5875 c 0,-0.16734 1.89618,-0.26458 5.15937,-0.26458 3.2632,0 5.15938,0.0972 5.15938,0.26458 0,0.16734 -1.89618,0.26458 -5.15938,0.26458 -3.26319,0 -5.15937,-0.0972 -5.15937,-0.26458 z m -2.910418,-1.5875 c 0,-0.16536 1.5875,-0.26458 4.233328,-0.26458 2.64584,0 4.23334,0.0992 4.23334,0.26458 0,0.16536 -1.5875,0.26458 -4.23334,0.26458 -2.645828,0 -4.233328,-0.0992 -4.233328,-0.26458 z m 3.285008,-1.56545 c -0.40349,-0.40434 0.17233,-0.55122 2.161,-0.55122 1.52487,0 2.23934,0.095 2.17463,0.28912 -0.0906,0.27184 -4.08494,0.51331 -4.33563,0.2621 z"
       id="path441" />
    <path
       style="fill:#2f2f31;fill-opacity:1;stroke-width:0.162245"
       d="m 19.571937,32.770565 c -2.450507,-0.152774 -4.381155,-0.410608 -4.790653,-0.639781 -0.219141,-0.12264 -0.192621,-0.171462 0.167517,-0.308389 1.101471,-0.418787 3.176748,-0.549497 9.926526,-0.625218 4.474274,-0.05019 7.976193,-0.013 9.447721,0.100354 2.441253,0.188048 3.902722,0.429846 4.051323,0.670287 0.125215,0.202601 -0.889873,0.43913 -2.7616,0.643493 -2.110222,0.230402 -13.14274,0.339934 -16.040834,0.159254 z"
       id="path4800"
       transform="matrix(0.26458333,0,0,0.26458333,97.478563,135.91104)" />
    <path
       style="fill:#474749;fill-opacity:1;stroke-width:0.162245"
       d="M 16.154211,26.756202 C 12.492876,26.626802 9.5082675,26.371397 8.8767574,26.133441 8.5532251,26.011532 8.5818088,25.981162 9.1668407,25.82523 10.790742,25.392402 13.851806,25.273353 25.366175,25.19522 c 11.68518,-0.07929 17.837493,0.0549 20.621951,0.44981 3.10856,0.440873 0.555168,0.866464 -6.724844,1.120875 -5.249745,0.18346 -17.792563,0.178193 -23.109071,-0.0097 z"
       id="path4802"
       transform="matrix(0.26458333,0,0,0.26458333,97.478563,135.91104)" />
    <path
       style="fill:#474749;fill-opacity:1;stroke-width:0.162245"
       d="m 19.53827,32.777512 c -2.33095,-0.145581 -4.352636,-0.420436 -4.756986,-0.646728 -0.219141,-0.12264 -0.192621,-0.171462 0.167517,-0.308389 1.109978,-0.422021 3.172563,-0.55005 10.071862,-0.625182 4.708117,-0.05127 8.032421,-0.01424 9.469934,0.105477 2.3547,0.196106 3.74059,0.433451 3.883774,0.665128 0.125164,0.202519 -0.889368,0.439029 -2.7616,0.643792 -2.0596,0.225254 -13.271434,0.340969 -16.074501,0.165902 z"
       id="path5218"
       transform="matrix(0.26458333,0,0,0.26458333,97.478563,135.91104)" />
    <path
       style="fill:#474749;fill-opacity:1;stroke-width:0.162245"
       d="m 25.517917,25.028514 c 0.426557,-0.03353 1.083649,-0.03313 1.460205,8.99e-4 0.376555,0.03403 0.02755,0.06146 -0.77556,0.06097 -0.803112,-4.94e-4 -1.111203,-0.02833 -0.684645,-0.06187 z"
       id="path5220"
       transform="matrix(0.26458333,0,0,0.26458333,97.478563,135.91104)" />
    <path
       style="fill:#474749;fill-opacity:1;stroke-width:0.162245"
       d="M 8.1122484,20.76585 C 4.2099125,20.612771 1.1301079,20.336704 0.49985795,20.083493 L 0.08112248,19.915261 0.56785739,19.772818 C 2.1036845,19.323357 5.482601,19.226029 19.550519,19.226029 c 13.713997,0 17.372933,0.09811 18.860977,0.505708 1.076027,0.294745 -0.453667,0.616769 -4.177808,0.879492 -3.102396,0.218862 -21.680426,0.328831 -26.1214396,0.154621 z"
       id="path5222"
       transform="matrix(0.26458333,0,0,0.26458333,97.478563,135.91104)" />
    <path
       style="fill:#474749;fill-opacity:1;stroke-width:0.162245"
       d="m 21.903071,14.761452 c -3.539878,-0.139441 -6.39889,-0.398689 -7.032951,-0.637728 -0.30924,-0.116582 -0.274938,-0.151616 0.299785,-0.306178 1.559826,-0.419489 4.882221,-0.548184 16.196188,-0.627369 7.716157,-0.054 13.114723,-0.01867 15.560055,0.101854 3.862908,0.190386 6.105775,0.422911 6.348109,0.658128 0.209344,0.203197 -1.331556,0.464703 -3.870664,0.656888 -2.924391,0.221347 -22.947214,0.333768 -27.500522,0.154405 z"
       id="path5224"
       transform="matrix(0.26458333,0,0,0.26458333,97.478563,135.91104)" />
    <path
       style="fill:#474749;fill-opacity:1;stroke-width:0.162245"
       d="M 11.11378,8.8125756 C 8.4352751,8.7315511 4.9097675,8.4284623 4.1948902,8.2177569 L 3.4882668,8.0094842 4.0561242,7.8231149 C 5.3388729,7.4021202 8.2251409,7.263172 17.315825,7.1847778 26.563137,7.105033 31.646806,7.2415243 34.059588,7.6343305 35.850891,7.9259586 35.742583,8.1417682 33.662641,8.42527 30.709927,8.827733 18.53049,9.0369305 11.11378,8.8125756 Z"
       id="path5226"
       transform="matrix(0.26458333,0,0,0.26458333,97.478563,135.91104)" />
    <path
       style="fill:#474749;fill-opacity:1;stroke-width:0.162245"
       d="M 17.055408,2.2663675 C 16.017902,2.1155856 15.394954,1.6230411 15.673857,1.1740213 16.16782,0.37876685 18.048536,0.14598677 23.998735,0.14363414 c 5.407343,-0.002138 7.842064,0.2395338 8.196873,0.81362625 0.485219,0.78509951 -11.572187,1.82765081 -15.1402,1.30910711 z"
       id="path5228"
       transform="matrix(0.26458333,0,0,0.26458333,97.478563,135.91104)" />
  </g>
</svg>
